# Blender v2.65 (sub 0) OBJ File: 'Level_Save_Main1.blend'
# www.blender.org
mtllib level1.mtl
o Glow1
v -1.800000 -0.200000 0.000000
v -2.200000 -0.200000 0.000000
v -1.800000 1.000000 -0.000000
v -2.200000 1.000000 -0.000000
v -2.000000 -0.200000 -0.200000
v -2.000000 -0.200000 0.200000
v -2.000000 1.000000 -0.200000
v -2.000000 1.000000 0.200000
vt 0.360016 0.074879
vt 0.639984 0.074879
vt 0.639984 0.914782
vt 0.360016 0.914782
vn 0.000000 0.000000 1.000000
vn 1.000000 0.000000 0.000000
g Light_Glow_Plane_Light_Glow
usemtl Glow1
s off
f 2/1/1 1/2/1 3/3/1
f 2/1/1 3/3/1 4/4/1
f 6/1/2 5/2/2 7/3/2
f 6/1/2 7/3/2 8/4/2
o Block1 
v 1.000000 2.000000 -3.000000
v -1.000000 2.000000 -3.000000
v 1.000000 0.000000 -3.000000
v -1.000000 0.000000 -3.000000
v 1.000000 2.000000 -1.000000
v -1.000000 2.000000 -1.000000
v 1.000000 -0.000000 -1.000000
v -1.000000 -0.000000 -1.000000
vt 0.387521 0.050099
vt 0.612483 0.050099
vt 0.612482 0.275061
vt 0.387521 0.275060
vt 0.612480 0.724982
vt 0.612480 0.949943
vt 0.387520 0.949942
vt 0.387520 0.724982
vt 0.162560 0.949943
vt 0.162559 0.724982
vt 0.837441 0.724982
vt 0.837441 0.949943
vt 0.387520 0.500021
vt 0.612481 0.500022
vn -1.000000 -0.000000 0.000000
vn -0.000000 1.000000 0.000000
vn 0.000000 -1.000000 -0.000000
vn 0.000000 0.000000 -1.000000
g 1x1x1_Square_Plane.001_Block_1x1x1
usemtl Block1
s off
f 14/5/1 16/6/1 15/7/1
f 14/5/1 15/7/1 13/8/1
f 12/9/3 16/10/3 14/11/3
f 12/9/3 14/11/3 10/12/3
f 13/13/4 9/14/4 10/12/4
f 13/13/4 10/12/4 14/11/4
f 11/15/5 15/16/5 16/10/5
f 11/15/5 16/10/5 12/9/5
f 9/17/2 13/8/2 15/7/2
f 9/17/2 15/7/2 11/18/2
f 10/12/6 9/17/6 11/18/6
f 10/12/6 11/18/6 12/9/6
o Floor1
v 1.000000 0.000000 1.000000
v -1.000000 -0.000000 1.000000
v 1.000000 0.000000 -1.000000
v -1.000000 -0.000000 -1.000000
v 1.000000 -1.000000 1.000000
v -1.000000 -1.000000 1.000000
v 1.000000 -1.000000 -1.000000
v -1.000000 -1.000000 -1.000000
vt 0.649970 0.799938
vt 0.649973 0.499999
vt 0.350034 0.499996
vt 0.350032 0.799936
vt 0.649978 0.050090
vt 0.350038 0.050087
vt 0.350035 0.350026
vt 0.649974 0.350029
vt 0.350032 0.949905
vt 0.649970 0.949906
vt 0.949907 0.949907
vt 0.949907 0.799938
vt 0.050093 0.799938
vt 0.050094 0.949907
g Tile_Normal_Plane.000_Floor_1x1/2x1
usemtl Floor1
s off
f 18/19/4 17/20/4 19/21/4
f 18/19/4 19/21/4 20/22/4
f 22/23/5 24/24/5 23/25/5
f 22/23/5 23/25/5 21/26/5
f 20/22/3 24/27/3 22/28/3
f 20/22/3 22/28/3 18/19/3
f 21/29/1 17/30/1 18/19/1
f 21/29/1 18/19/1 22/28/1
f 19/31/6 23/32/6 24/27/6
f 19/31/6 24/27/6 20/22/6
f 17/20/2 21/26/2 23/25/2
f 17/20/2 23/25/2 19/21/2
