# Blender v2.65 (sub 0) OBJ File: 'Level_Save_04_Cube.blend'
# www.blender.org
mtllib Tile_Normal.mtl
o tile
v 1.000000 0.000000 1.000000
v -1.000000 -0.000000 1.000000
v 1.000000 0.000000 -1.000000
v -1.000000 -0.000000 -1.000000
v 1.000000 -1.000000 1.000000
v -1.000000 -1.000000 1.000000
v 1.000000 -1.000000 -1.000000
v -1.000000 -1.000000 -1.000000
vt 0.649970 0.799938
vt 0.649973 0.499999
vt 0.350034 0.499996
vt 0.350032 0.799936
vt 0.649978 0.050090
vt 0.350038 0.050087
vt 0.350035 0.350026
vt 0.649974 0.350029
vt 0.350032 0.949905
vt 0.649970 0.949906
vt 0.949907 0.949907
vt 0.949907 0.799938
vt 0.050093 0.799938
vt 0.050094 0.949907
vn -0.000000 1.000000 0.000000
vn -0.000000 -1.000000 0.000000
vn -1.000000 0.000000 -0.000000
vn -0.000000 0.000000 1.000000
vn 0.000000 0.000000 -1.000000
vn 1.000000 0.000000 -0.000000
usemtl Floor
s off
f 2/1/1 1/2/1 3/3/1
f 2/1/1 3/3/1 4/4/1
f 6/5/2 8/6/2 7/7/2
f 6/5/2 7/7/2 5/8/2
f 4/4/3 8/9/3 6/10/3
f 4/4/3 6/10/3 2/1/3
f 5/11/4 1/12/4 2/1/4
f 5/11/4 2/1/4 6/10/4
f 3/13/5 7/14/5 8/9/5
f 3/13/5 8/9/5 4/4/5
f 1/2/6 5/8/6 7/7/6
f 1/2/6 7/7/6 3/3/6
