# Blender v2.64 (sub 0) OBJ File: ''
# www.blender.org
mtllib cube.mtl
o block
v  0.5 -0.5 -0.5
v  0.5 -0.5  0.5
v -0.5 -0.5  0.5
v -0.5 -0.5 -0.5
v  0.5  0.5 -0.5
v  0.5  0.5  0.5
v -0.5  0.5  0.5
v -0.5  0.5 -0.5
vt 0.0 0.0
vt 1.0 0.0
vt 0.0 1.0
vt 1.0 1.0
vn  0.0 -1.0  0.0
vn  0.0  1.0  0.0
vn  1.0  0.0  0.0
vn  0.0  0.0  1.0
vn -1.0  0.0  0.0
vn  0.0  0.0 -1.0
usemtl Material
s off
f 1/4/1 2/2/1 3/1/1
f 1/4/1 3/1/1 4/3/1
f 5/1/2 8/3/2 7/4/2
f 5/1/2 7/4/2 6/2/2
f 1/2/3 5/4/3 6/3/3
f 1/2/3 6/3/3 2/1/3
f 2/2/4 6/4/4 7/3/4
f 2/2/4 7/3/4 3/1/4
f 3/2/5 7/4/5 8/3/5
f 3/2/5 8/3/5 4/1/5
f 5/3/6 1/1/6 4/2/6
f 5/3/6 4/2/6 8/4/6
